<?xml version="1.0" encoding="utf-8"?>
<!-- Generator: Adobe Illustrator 22.1.0, SVG Export Plug-In . SVG Version: 6.00 Build 0)  -->
<svg version="1.1" id="Layer_1" xmlns="http://www.w3.org/2000/svg" xmlns:xlink="http://www.w3.org/1999/xlink" x="0px" y="0px"
	 viewBox="0 0 64 64" style="enable-background:new 0 0 64 64;" xml:space="preserve">
<style type="text/css">
	.st0{fill:#EC1A60;}
	.st1{fill:#2B2A27;}
	.st2{fill:#FFFFFF;}
	.st3{fill:#D1D3D4;}
</style>
<g>
	<path class="st0" d="M20.9,16.1c3.6,7.8,7.2,15.3,10.9,23.3c0.6-1.1,2.6-5.2,2.6-5.2l-0.7-1.5c0,0-5.4-11.2-5.7-11.9
		c0.7,0,11.4,0,16.3,0c1.5,0,3.3-0.5,3.8,2.2c1.2-2.5,2.2-4.6,3.3-6.9C41,16.1,31.1,16.1,20.9,16.1z"/>
	<path class="st0" d="M43.6,24c-1.2,0-8.4,0-11,0c1.2,2.4,2.2,4.5,3.2,6.7c1.4-1.7,2.1-1.9,3.8-1.2c-0.2,0.4-0.3,0.8-0.5,1.2
		C37.5,34.1,33.7,42,33.7,42l2.6,4.8c0,0,6.5-13.8,9.3-19.7C46.4,25.4,45.6,24,43.6,24z"/>
	<path class="st0" d="M32.9,44.1c-0.4,0.4-0.6,0.7-1.1,1.3C31.1,44,17.7,16,17.7,16s-4.7,0-4.9,0c6.4,13.3,12.7,26.5,19.1,40
		c1.2-2.5,3.4-7.2,3.4-7.2S33.5,45.3,32.9,44.1z"/>
</g>
</svg>
