<?xml version="1.0" encoding="utf-8"?>
<!-- Generator: Adobe Illustrator 22.1.0, SVG Export Plug-In . SVG Version: 6.00 Build 0)  -->
<svg version="1.1" id="Layer_1" xmlns="http://www.w3.org/2000/svg" xmlns:xlink="http://www.w3.org/1999/xlink" x="0px" y="0px"
	 viewBox="0 0 300 43.3" style="enable-background:new 0 0 300 43.3;" xml:space="preserve">
<style type="text/css">
	.st0{fill:#EC1A60;}
	.st1{fill:#2B2A27;}
	.st2{fill:#FFFFFF;}
	.st3{fill:#D1D3D4;}
</style>
<g>
	<path class="st1" d="M300,36.5c-0.1,0.1-0.2,0.2-0.2,0.3c-0.6,4.1-3.6,6.1-7.1,6.3c-5.7,0.3-11.5,0.3-17.2,0
		c-4.9-0.2-7.4-3.2-7.4-8.1c0-5.2,0-10.4,0-15.5c0-4.9,2.2-7.8,7-8.1c6-0.4,12-0.3,18,0c3.9,0.2,6.2,2.7,6.9,6.6
		C300,24.1,300,30.3,300,36.5z M287,27.3c0-1.6,0-3.3,0-4.9c0-3.8-0.1-3.9-3.9-3.8c-1.8,0-2.2,0.4-2.2,2.3c0,3.8,0,7.6,0,11.3
		c0,3.3-0.5,3.8,3.9,3.7c0,0,0.1,0,0.1,0c1.6-0.1,2.1-0.5,2.1-2.1C287,31.6,287,29.4,287,27.3z"/>
	<path class="st1" d="M140.7,32.9c4.1,0,8.2,0,12.5,0c0,0.4,0.1,0.8,0.1,1.2c0,0.8-0.1,1.9,1,2c1.1,0.1,3,0.2,3.4-0.4
		c0.6-1.1,0.5-2.7,0.3-4.1c0-0.4-1.4-0.8-2.1-0.8c-3-0.2-6.1-0.1-9.1-0.6c-4.5-0.8-6.5-3.3-6.5-7.9c0-0.8,0-1.6,0-2.4
		c0-5.1,2.1-8.1,7.2-8.6c5.2-0.4,10.5-0.5,15.6,0c5.3,0.5,7.6,3.9,7.1,9.3c0,0.3-0.5,0.7-0.8,0.9c-0.2,0.1-0.6,0-1,0
		c-3.5,0-6.9,0-10.6,0c0-0.7,0-1.3,0-1.8c-0.1-1.5-0.6-1.8-2.5-1.8c-1.7,0-2.2,0.4-2.2,1.8c-0.2,4-0.2,3.9,3.9,4
		c2.6,0.1,5.3,0.1,7.9,0.6c3.9,0.7,5.9,3.3,6,7.3c0,0.9,0,1.9,0,2.8c0,5.2-2.4,8.2-7.6,8.5c-5.1,0.3-10.3,0.4-15.4,0
		C142.4,42.6,139.7,38.5,140.7,32.9z"/>
	<path class="st1" d="M263.6,23.4c-4.3,0-8.3,0-12.6,0c0-0.9,0-1.8,0-2.7c0-1.1-0.5-1.6-1.6-1.7c-0.1,0-0.3,0-0.4,0
		c-3-0.1-3.3,0.1-3.3,3.1c0,3.6,0,7.3,0,10.9c0,1.8,0.4,2.2,2.2,2.2c0.3,0,0.7,0,1,0c1.7-0.1,2.1-0.5,2.1-2.1
		c0.1-2.4,0.1-2.4,2.4-2.4c3,0,6,0,9,0c1,0,1.4,0.2,1.3,1.3c-0.1,1.2,0,2.3,0,3.5c-0.1,3.4-1.6,5.6-4.9,6.8
		c-1.2,0.4-2.5,0.8-3.8,0.8c-4.6,0.1-9.2,0.1-13.9,0c-1.2,0-2.5-0.3-3.7-0.7c-2.9-1-4.7-3.1-4.8-6.3c-0.1-6-0.1-12,0-18.1
		c0.1-3.1,1.9-5.1,4.7-6.1c0.9-0.3,1.9-0.7,2.8-0.7c4.9-0.1,9.8-0.2,14.7-0.1c1.4,0,2.9,0.5,4.2,1c2.9,1.1,4.4,3.3,4.5,6.3
		C263.6,20.1,263.6,21.7,263.6,23.4z"/>
	<g>
		<path class="st0" d="M8.6,0.5c3.9,8.3,7.6,16.3,11.6,24.8c0.6-1.2,2.8-5.5,2.8-5.5l-0.8-1.6c0,0-5.8-11.9-6.1-12.7
			c0.8,0,12.2,0,17.3,0c1.6,0,3.5-0.5,4,2.4c1.3-2.7,2.4-4.9,3.5-7.3C30.1,0.5,19.5,0.5,8.6,0.5z"/>
		<path class="st0" d="M32.9,9c-1.3,0-8.9,0-11.8,0c1.2,2.6,2.3,4.8,3.4,7.2c1.5-1.8,2.2-2,4.1-1.3c-0.2,0.4-0.3,0.8-0.5,1.2
			c-1.7,3.6-5.7,12-5.7,12l2.8,5.1c0,0,6.9-14.7,9.9-21C35.9,10.5,34.9,9,32.9,9z"/>
		<path class="st0" d="M21.4,30.4c-0.4,0.5-0.6,0.8-1.1,1.4C19.5,30.3,5.2,0.5,5.2,0.5s-5,0-5.2,0c6.8,14.2,13.5,28.2,20.4,42.6
			c1.2-2.6,3.6-7.7,3.6-7.7S22.1,31.7,21.4,30.4z"/>
	</g>
	<polygon class="st1" points="54.2,1.6 68.3,1.6 74.6,29.8 80.6,1.6 94.6,1.7 82.5,43.3 66.6,43.3 	"/>
	<rect x="98.2" class="st1" width="13.6" height="7.6"/>
	<rect x="98.4" y="10.9" class="st1" width="13.1" height="32.3"/>
	<rect x="175.9" class="st1" width="13.6" height="7.6"/>
	<rect x="176.2" y="10.9" class="st1" width="13.1" height="32.3"/>
	<path class="st1" d="M115.2,10.9h4.2l0.1-6.3h13.2v6.3h4.9l-0.1,8.1h-4.9l0.1,14.6c0,0,0,1.6,1.5,1.7c1.5,0,3.3,0,3.3,0l0.1,7.9
		h-9.3c0,0-8.4,0.1-8.7-7c-0.3-7-0.2-17.2-0.2-17.2h-4.1V10.9z"/>
	<path class="st1" d="M195.8,11.1h12.7V15h0.7c0,0,0.8-3.6,5.1-3.6s5,0,5,0s7.9-0.2,7.9,6.3c0,5.8,0,25.6,0,25.6h-12.8V20.4
		c0,0-0.1-1.6-1.6-1.6s-2.4,0-2.4,0s-1.7-0.2-1.7,1.7s0,22.7,0,22.7h-12.8V11.1z"/>
</g>
</svg>
